<svg xmlns="http://www.w3.org/2000/svg" width="109.538" height="53.957" viewBox="0 0 28.982 14.276">
    <g stroke="#fff" fill="none" stroke-width="2.5">
        <path
            d="M.116 11.218l4.96-8.906-.283-.992L7.439.587l.354.874c3.66 3.426 7.666 4.886 12.828-.26l.236-1.039 2.74.709-.212 1.087 5.244 10.134-.07-.047" />
        <path
            d="M5.573 4.273L2.502 9.73l4.44-1.205zm17.15-.26L21.4 8.454l4.512 1.772-3.07-6.166zM8.384 3.847L9.54 8.194c3.493-.808 6.328-.48 9.143-.118l1.11-4.252c-3.803 2.63-7.607 3.239-11.41.023z" />
    </g>
    <!-- <g style="line-height:1.25">
        <path
            d="M6.253 10.602q.414 0 .717.269l-.066.41-.036.011q-.275-.314-.632-.314-.389 0-.598.37-.209.365-.209 1.072 0 .712.21 1.088.208.376.59.376.18 0 .356-.09.18-.09.328-.252l.04.028-.028.426q-.357.27-.725.27-.53 0-.82-.466-.291-.471-.291-1.341 0-.892.303-1.374.304-.483.86-.483zm2.133-.006q.541 0 .828.454.291.455.291 1.308 0 .92-.307 1.419-.308.493-.877.493-.533 0-.824-.47-.287-.472-.287-1.342 0-.897.303-1.38.308-.482.873-.482zm-.02.365q-.82 0-.82 1.447 0 .769.197 1.139.2.37.602.37.82 0 .82-1.475 0-.752-.2-1.117-.198-.364-.6-.364zm2.741 1.812q.27.611.68 1.346l-.004.056q-.148.079-.303.101l-.046-.04q-.336-.69-.602-1.346h-.48v.214l.017 1.122h-.332l.02-1.083-.02-2.513.803-.006q.385 0 .594.27.214.263.214.756 0 .37-.144.668-.14.292-.397.454zm-.75-.264l.491.017q.46-.18.46-.836 0-.342-.136-.51-.135-.174-.406-.186l-.397.017zm3.453 1.369l-.024.348H12.31l.02-1.083-.02-2.513h1.48l.016.045-.025.347-.618-.016-.52.011-.009 1.178.492.012.434-.017.025.04-.029.347-.459-.011-.467.005-.004.533.012.747.52.005.632-.022zM15 10.602q.283 0 .586.168l-.053.432-.057.022q-.12-.123-.254-.19-.131-.068-.263-.068-.151 0-.266.084-.11.085-.172.22-.057.134-.057.28 0 .151.065.269.07.112.172.196.103.084.279.202.221.14.356.264.136.118.23.303.098.185.098.449 0 .28-.11.516-.111.235-.312.376-.2.14-.459.14-.172 0-.36-.062-.185-.067-.345-.19l.041-.46.045-.029q.144.191.316.286.176.09.336.09.156 0 .275-.084.122-.084.184-.224.066-.14.066-.298 0-.235-.132-.376-.13-.145-.397-.314-.217-.146-.348-.258-.132-.118-.226-.297-.094-.185-.094-.449 0-.275.106-.505.111-.23.304-.359.196-.134.446-.134zm2.458.808q.246 0 .402.173.16.169.16.45 0 .224-.115.504-.115.275-.365.673l-.414.645.008.023h.759l.344-.034.024.028-.045.376-.418-.022h-.918l-.151.011-.02-.022v-.28l.569-.848q.221-.336.324-.555.102-.225.102-.393 0-.151-.082-.247-.082-.1-.23-.1-.147 0-.294.1-.144.101-.263.28h-.04l-.054-.341q.16-.202.344-.309.185-.112.373-.112zm2.029-.012q.414 0 .64.37.229.365.229 1.044 0 .696-.238 1.077-.237.376-.672.376-.418 0-.647-.365-.226-.364-.226-1.032 0-.707.238-1.088.238-.382.676-.382zm-.029.41q-.311 0-.47.258-.157.258-.157.768 0 .516.16.78.16.258.472.258.311 0 .47-.252.165-.258.165-.758 0-.521-.164-.785-.16-.27-.476-.27zm2.006-.354l-.02 1.61.016 1.162h-.328l.02-1.106-.004-1.2-.528.202-.033-.023v-.353l.828-.337zm1.318 1.93q-.307 0-.483-.258-.172-.258-.172-.69 0-.466.213-.757.213-.298.586-.298.377 0 .57.32.192.32.192.909 0 .712-.32 1.273-.315.561-.893.876h-.02l-.254-.202v-.045q.491-.236.766-.561.279-.326.373-.774l-.025-.04q-.246.247-.533.247zm.12-1.694q-.23 0-.357.18-.127.173-.127.504 0 .326.119.505.118.174.336.174.27 0 .516-.292.004-.05.004-.151 0-.46-.119-.69-.119-.23-.373-.23z"
            style="-inkscape-font-specification:'Alegreya Sans'" aria-label="CORES 2023" font-weight="400"
            font-size="4.795" font-family="Alegreya Sans" letter-spacing="0" word-spacing="0" fill="#fff" />
    </g> -->
</svg>
